<svg width="200" height="97" viewBox="0 0 200 97" fill="none" xmlns="http://www.w3.org/2000/svg">
<path d="M61.7715 63.4187H74.4644V67.6026H68.4263V96.9999H61.7715V63.4187Z" fill="white" fill-opacity="0.5"/>
<path d="M81.9927 84.3932L83.1332 67.6026H83.5152L84.6557 84.3932H81.9927ZM74.623 96.9999H81.1387L81.7553 88.0816H84.8931L85.5125 96.9999H92.0254L88.5547 63.4187H78.0937L74.623 96.9999Z" fill="white" fill-opacity="0.5"/>
<path d="M101.554 85.2465V91.5774C101.554 92.4307 102.208 92.6784 102.59 92.6784C103.218 92.6784 103.654 92.1554 103.654 91.5774V83.7601C103.654 82.7141 103.463 81.5581 100.981 81.5581H98.2793V77.8696H101.09C102.972 77.8696 103.654 77.4292 103.654 75.3648V68.7036C103.654 68.1256 103.218 67.6026 102.59 67.6026C102.208 67.6026 101.554 67.8228 101.554 68.7036V74.1812H94.896V69.4193C94.896 67.0796 95.1688 63.4187 99.8346 63.4187H105.346C110.012 63.4187 110.312 67.0796 110.312 69.4193V74.7868C110.312 78.4477 107.774 79.4386 105.783 79.356V79.6863C110.257 79.5762 110.312 83.0445 110.312 84.2281V90.9993C110.312 93.3665 110.012 96.9999 105.346 96.9999H99.8346C95.1688 96.9999 94.896 93.3665 94.896 90.9993V85.2465H101.554Z" fill="white" fill-opacity="0.5"/>
<path d="M114.678 63.4187H130.094V96.9999H123.437V67.6026H121.336V96.9999H114.678V63.4187Z" fill="white" fill-opacity="0.5"/>
<path d="M141.118 81.8884V67.6026H141.991C142.701 67.6026 143.219 68.2081 143.219 69.2817V80.2093C143.219 81.2828 142.701 81.8884 141.991 81.8884H141.118ZM134.46 96.9999H141.118V85.5768H144.938C149.576 85.5768 149.876 81.9434 149.876 79.5762V69.4193C149.876 67.0796 149.576 63.4187 144.938 63.4187H134.46V96.9999Z" fill="white" fill-opacity="0.5"/>
<path d="M163.001 91.5774C163.001 92.1554 162.564 92.6784 161.937 92.6784C161.555 92.6784 160.9 92.4307 160.9 91.5774V68.7036C160.9 67.8228 161.555 67.6026 161.937 67.6026C162.564 67.6026 163.001 68.1256 163.001 68.7036V91.5774ZM154.242 90.9993C154.242 93.3665 154.543 96.9999 159.181 96.9999H164.72C169.358 96.9999 169.658 93.3665 169.658 90.9993V69.4193C169.658 67.0796 169.358 63.4187 164.72 63.4187H159.181C154.543 63.4187 154.242 67.0796 154.242 69.4193V90.9993Z" fill="white" fill-opacity="0.5"/>
<path d="M191.324 63.4187H200V96.9999H193.343V75.9428H193.097L189.659 96.9999H184.339L180.928 75.9428H180.682V96.9999H174.025V63.4187H182.674L187.013 87.0357L191.324 63.4187Z" fill="white" fill-opacity="0.5"/>
<path d="M53.1467 17.5062C51.1085 8.50539 46.0008 1.1836 45.2968 0C44.1836 1.67906 40.1099 8.14756 38.039 15.3042C35.7771 23.3142 35.4442 30.4158 36.2245 37.3797C36.9994 44.3712 39.9271 51.5554 39.9271 51.5554C41.4824 55.2989 43.8125 59.3451 45.3295 61.327C47.5533 58.4093 52.6637 49.7112 54.2572 38.3706C55.1439 32.0398 55.1821 26.5071 53.1467 17.5062ZM45.2968 59.0699C44.2954 57.1706 42.7402 53.5648 42.5929 47.9496C42.5547 42.5545 44.702 37.9027 45.3295 36.9393C45.8889 37.9027 47.7388 41.949 47.9598 47.4816C48.1099 52.8766 46.3309 57.1431 45.2968 59.0699ZM52.5546 32.7829C52.4782 36.2237 52.0716 39.857 51.5532 42.0315C51.7388 38.2881 51.294 33.0307 50.4427 28.9019C49.5914 24.8005 47.1822 17.9191 45.2586 14.7537C43.4824 17.7815 41.2941 23.727 40.1481 28.8743C38.9967 34.0216 38.964 40.2699 38.964 42.1417C38.6584 40.5727 37.8944 34.93 38.1099 29.2872C38.29 24.6354 39.3705 19.8184 39.9626 17.6164C42.2218 10.267 44.7784 5.56016 45.2586 4.81696C45.7388 5.56016 48.9584 11.3681 50.6283 17.4512C52.2899 23.5344 52.6255 29.3698 52.5546 32.7829Z" fill="white" fill-opacity="0.5"/>
<path d="M48.7527 63.4188H33.2576V73.9061C33.2713 73.9061 33.2822 73.8786 33.2958 73.8786C36.9465 70.1902 42.8674 70.1902 46.5208 73.8786C50.1715 77.5395 50.1715 83.5125 46.5208 87.201C46.5045 87.2285 46.4881 87.2285 46.4717 87.256C46.4526 87.256 46.4335 87.2835 46.4171 87.3111C42.7746 90.9444 38.0161 92.7611 33.2576 92.7611C28.4773 92.7611 23.697 90.9444 20.0517 87.256C13.6234 80.7875 12.8621 70.7406 17.7625 63.4188C18.4228 62.4279 19.184 61.492 20.0517 60.6112C23.697 56.9228 28.4773 55.1061 33.2576 55.1061V29.8927C14.8894 29.8927 0 44.8941 0 63.4188C0 81.9436 14.8894 96.9725 33.2576 96.9725C42.8346 96.9725 51.4621 92.8712 57.5303 86.3477V63.4188H48.7527Z" fill="white" fill-opacity="0.5"/>
</svg>
