<svg width="192" height="24" viewBox="0 0 192 24" fill="none" xmlns="http://www.w3.org/2000/svg">
<path d="M11 0L7.59986 7.90286L0 9.16286L5.5 15.3171L4.19973 24L11 19.9029L17.8003 24L16.5 15.3171L22 9.17143L14.4001 7.90286L11 0Z" fill="#D1A954"/>
<path d="M53.311 0L49.9109 7.90286L42.311 9.16286L47.811 15.3171L46.5108 24L53.311 19.9029L60.1113 24L58.811 15.3171L64.311 9.17143L56.7112 7.90286L53.311 0Z" fill="#D1A954"/>
<path d="M95.6223 0L92.2222 7.90286L84.6223 9.16286L90.1223 15.3171L88.822 24L95.6223 19.9029L102.423 24L101.122 15.3171L106.622 9.17143L99.0224 7.90286L95.6223 0Z" fill="#D1A954"/>
<path d="M137.933 0L134.533 7.90286L126.933 9.16286L132.433 15.3171L131.133 24L137.933 19.9029L144.734 24L143.433 15.3171L148.933 9.17143L141.333 7.90286L137.933 0Z" fill="#D1A954"/>
<path d="M180.244 0L176.844 7.90286L169.244 9.16286L174.744 15.3171L173.444 24L180.244 19.9029L187.045 24L185.744 15.3171L191.244 9.17143L183.645 7.90286L180.244 0Z" fill="#D1A954"/>
</svg>
